<svg width="280" height="280" viewBox="0 0 280 280" fill="none" xmlns="http://www.w3.org/2000/svg">
<g clip-path="url(#clip0_312_84)">
<path d="M157.538 87.7395L157.313 27H123.462L123.687 87.7395L140.613 110.997L157.538 87.7395ZM123.687 191.832V252.798H157.538V191.832L140.613 168.575L123.687 191.832Z" fill="white"/>
<path d="M157.538 191.832L193.196 241.056L220.502 221.186L184.845 171.963L157.538 163.156V191.832ZM123.687 87.7397L87.8043 38.5156L60.4976 58.386L96.1548 107.61L123.687 116.416V87.7397Z" fill="white"/>
<path d="M96.1548 107.609L38.3808 88.8682L28 120.931L85.7731 139.898L113.08 130.866L96.1548 107.609ZM167.92 148.705L184.845 171.962L242.619 190.703L253 158.64L195.227 139.898L167.92 148.705Z" fill="white"/>
<path d="M195.227 139.898L253 120.931L242.619 88.8682L184.845 107.609L167.92 130.866L195.227 139.898ZM85.7731 139.898L28 158.64L38.3808 190.703L96.1548 171.962L113.08 148.705L85.7731 139.898Z" fill="white"/>
<path d="M96.1548 171.963L60.4976 221.186L87.8043 241.056L123.687 191.832V163.156L96.1548 171.963ZM184.845 107.61L220.502 58.386L193.196 38.5156L157.538 87.7397V116.416L184.845 107.61Z" fill="white"/>
</g>
<defs>
<clipPath id="clip0_312_84">
<rect width="225" height="226" fill="white" transform="translate(28 27)"/>
</clipPath>
</defs>
</svg>
