<svg width="280" height="280" viewBox="0 0 280 280" fill="none" xmlns="http://www.w3.org/2000/svg">
<g clip-path="url(#clip0_312_88)">
<path d="M76.995 202.355C88.772 185.497 112.74 173.956 140.391 173.956C168.041 173.956 192.011 185.496 203.788 202.356C192.01 219.212 168.042 230.753 140.391 230.753C112.74 230.753 88.772 219.213 76.995 202.355Z" fill="white"/>
<path d="M76.567 77.097C88.337 60.418 112.289 49 139.923 49C167.556 49 191.509 60.418 203.279 77.097C191.509 93.776 167.556 105.194 139.923 105.194C112.289 105.194 88.337 93.776 76.567 77.097Z" fill="white"/>
<path d="M141.133 140.209C124.009 156.749 100.784 166.04 76.567 166.04C52.35 166.04 29.124 156.748 12 140.209L76.567 77.0967L141.133 140.209Z" fill="white"/>
<path d="M268 140.24C250.876 156.78 227.65 166.071 203.433 166.071C179.216 166.071 155.99 156.779 138.866 140.24L203.433 77.0967L268 140.24Z" fill="white"/>
</g>
<defs>
<clipPath id="clip0_312_88">
<rect width="256" height="182" fill="white" transform="translate(12 49)"/>
</clipPath>
</defs>
</svg>
