<svg width="2500" height="2461" viewBox="0 0 2500 2461" fill="none" xmlns="http://www.w3.org/2000/svg">
<path d="M2401.44 2336.96C2393.31 2329.24 2385.26 2321.59 2377.21 2313.56C2328.82 2248.59 2268.85 2192 2203.97 2145.43L2203.91 2145.39L2203.86 2145.35C2190.35 2136.06 2172.92 2125.99 2154.35 2115.31L2152.51 2114.24C2134.37 2103.81 2115.11 2092.72 2096.78 2080.94C2077.82 2068.74 2060.07 2055.93 2045.81 2042.52C2033.13 2030.6 2023.54 2018.52 2018.15 2006.31C2048.72 2002.14 2082.49 1992.4 2111.35 1984.07C2115.11 1982.99 2118.78 1981.93 2122.35 1980.9C2149.86 1973.63 2176.2 1970.78 2203.32 1967.88L2203.94 1967.81C2230.76 1964.95 2258.33 1962 2287.61 1954.48C2314.3 1947.81 2340.95 1939.47 2367.38 1931.22L2372.29 1929.68V1924.53V1909.66V1906.76L2370.24 1904.71C2356.98 1891.45 2345.38 1876.13 2333.42 1860.34C2332.33 1858.9 2331.24 1857.46 2330.14 1856.02C2317.14 1838.88 2303.54 1821.42 2287.26 1806.86L2287.21 1806.82L2287.17 1806.78C2202.63 1733.83 2109.71 1662.51 2013.41 1602.73C1987.28 1585.88 1957.48 1572.06 1927.7 1559.03C1921.19 1556.18 1914.69 1553.37 1908.22 1550.58C1884.89 1540.51 1862 1530.63 1840.84 1519.73L1840.81 1519.72L1840.77 1519.7C1835.39 1517 1829.24 1514.71 1823.13 1512.57C1820.97 1511.82 1818.84 1511.1 1816.73 1510.38C1812.68 1509 1808.69 1507.64 1804.73 1506.16C1792.43 1501.58 1783.27 1496.8 1778.88 1490.52L1778.72 1490.3L1778.56 1490.09C1764.19 1472.54 1752.89 1452.05 1742.43 1430.31C1737.83 1420.75 1733.43 1411.03 1728.99 1401.25C1728.39 1399.91 1727.78 1398.56 1727.17 1397.22C1722.13 1386.11 1717.02 1374.94 1711.58 1364.06L1711.54 1363.99L1711.51 1363.92C1663.67 1273.17 1617.42 1172.48 1576.1 1076.65L1576.07 1076.57L1576.03 1076.49C1565.28 1053.17 1556.08 1029.94 1546.89 1006.74C1543.44 998.038 1540 989.344 1536.48 980.652C1523.62 948.926 1509.8 917.495 1491.31 887.237C1320.26 604.967 1134.11 433.84 848.751 266.285L848.706 266.258L848.661 266.232C791.851 234.002 725.325 218.608 655.42 202.433C648.668 200.87 641.884 199.301 635.075 197.708L634.427 197.556L633.762 197.53C613.174 196.701 592.567 195.465 571.879 194.224L571.858 194.222C551.649 193.01 531.361 191.793 511.066 190.959C499.305 185.532 487.196 175.765 474.739 164.918C472.454 162.929 470.152 160.897 467.84 158.858C457.528 149.759 447.039 140.503 437.12 134.128L437.097 134.113L437.073 134.098C389.768 104.215 304.589 56.5539 222.133 37.8862C180.898 28.5508 139.639 26.298 103.924 37.7685C67.8549 49.353 38.0854 74.7415 19.9624 119.166C-3.5978 175.893 14.1654 231.685 41.4573 279.123C55.1428 302.911 71.4041 324.923 86.5099 344.285C91.4813 350.658 96.2903 356.699 100.839 362.413C110.265 374.253 118.573 384.69 124.891 393.759L124.948 393.841L125.007 393.922C131.126 402.191 137.565 410.615 144.098 419.162C168.062 450.513 193.289 483.516 208.585 516.594C214.125 530.072 217.724 544.029 221.445 558.716L221.758 559.949C225.356 574.156 229.119 589.017 234.908 603.913C241.157 621.084 247.336 638.797 253.597 656.742C273.668 714.275 294.571 774.194 321.252 826.264L321.266 826.292L321.281 826.32C339.48 861.049 359.531 897.846 383.033 929.741C386.744 934.837 391.065 939.125 395.274 943.015C396.769 944.398 398.211 945.697 399.618 946.964C402.338 949.414 404.925 951.744 407.506 954.325C414.425 961.245 420.109 968.863 422.616 980.306C411.306 997.561 405.232 1018.37 400.468 1039.2C398.89 1046.1 397.46 1052.96 396.046 1059.75C392.887 1074.92 389.805 1089.71 385.312 1103.74L385.309 1103.75C325.247 1292.26 348.412 1525.97 433.988 1665.23L434.022 1665.29L434.056 1665.34C447.313 1686.05 470.167 1720.01 500.715 1744.36C531.437 1768.85 570.91 1784.3 616.262 1765.63C656.713 1749.45 672 1715.54 680.033 1677.06C683.474 1660.58 685.667 1642.86 687.875 1625.02C688.234 1622.11 688.594 1619.2 688.96 1616.3C691.592 1595.38 694.542 1574.38 699.79 1554.18L699.798 1554.15L699.805 1554.12C701.738 1546.42 702.535 1539.36 703.199 1533.47C703.432 1531.41 703.649 1529.49 703.893 1527.74C704.043 1526.66 704.205 1525.61 704.386 1524.6C708.113 1532.02 711.832 1539.39 715.538 1546.73C732.882 1581.1 749.932 1614.89 766.071 1649.64L766.262 1650.05L766.504 1650.44C818.411 1732.45 908.445 1817.4 983.224 1873.9L983.235 1873.91L983.247 1873.92C997.354 1884.49 1010.25 1897.73 1023.77 1911.61C1028.79 1916.77 1033.9 1922.01 1039.18 1927.24C1058.34 1946.18 1079.49 1964.47 1105.8 1974.11L1115.2 1977.56V1967.54V1962.57V1955.57H1108.49C1103.32 1948.76 1097.29 1943.68 1091.3 1939.19C1088.96 1937.43 1086.71 1935.82 1084.51 1934.25C1080.06 1931.07 1075.85 1928.05 1071.63 1924.37C1042.03 1894.77 1009.34 1858.78 986.572 1826.25L986.506 1826.16L986.437 1826.06C917.272 1733.83 856.255 1631.65 801.8 1526.05L801.799 1526.04C777.344 1478.67 755.699 1426.98 735.472 1378.68C733.944 1375.03 732.424 1371.4 730.911 1367.79L730.821 1367.57L730.716 1367.36C727.424 1360.78 725.399 1353.24 723.202 1345.06C722.328 1341.8 721.426 1338.44 720.407 1335.01C717.128 1323.94 712.419 1311.45 701.587 1304.96L695.925 1301.56L692.204 1307.01C683.726 1319.44 673.983 1331.14 663.856 1343.3C659.405 1348.64 654.88 1354.07 650.355 1359.7C635.772 1377.82 621.635 1397.44 612.149 1420.68C596.095 1457.06 587.309 1497.44 581.075 1539.82C577.459 1564.4 574.653 1590.09 571.805 1616.16C569.95 1633.15 568.076 1650.29 565.951 1667.39C565.578 1667.5 565.108 1667.67 564.613 1667.91C564.186 1668.13 563.809 1668.36 563.478 1668.6C541.396 1661.92 525.99 1647.06 513.65 1628C502.821 1611.26 494.698 1591.88 486.555 1572.46C484.754 1568.16 482.952 1563.86 481.12 1559.59C432.193 1443.81 423.935 1257.03 466.459 1122.93C468.602 1116.51 472.075 1107.48 476.246 1096.64C477.592 1093.14 479.011 1089.46 480.481 1085.61C486.463 1069.94 493.19 1051.86 498.939 1033.78C504.673 1015.75 509.519 997.465 511.64 981.438C513.658 966.194 513.457 951.377 507.592 940.937C501.985 923.862 490.326 910.664 478.559 899.108C475.251 895.859 471.972 892.768 468.778 889.756C460.068 881.544 451.986 873.925 445.664 865.327C424.361 834.171 401.477 794.944 386.843 760.77L386.842 760.768C368.468 717.905 354.368 672.866 340.098 627.281C339.082 624.038 338.066 620.792 337.047 617.543C321.754 568.778 305.921 519.579 284.203 472.802C267.622 436.887 240.863 399.854 216.428 366.038C211.088 358.647 205.858 351.41 200.871 344.372C190.082 329.042 178.788 315.101 167.808 301.548C162.674 295.211 157.608 288.958 152.695 282.688C137.141 262.837 122.616 242.23 110.532 216.467C106.453 207.487 101.798 196.149 99.6878 184.838C97.5573 173.419 98.235 163.199 103.383 155.478L104.056 154.469L104.35 153.292C105.782 147.565 107.711 144.448 110.062 142.359C112.539 140.158 116.215 138.441 122.415 136.893L123.997 136.497L125.241 135.444C128.848 132.391 134.81 130.565 143.231 130.348C151.512 130.135 161.215 131.505 171.257 133.814C191.32 138.427 211.521 146.501 221.982 151.333L222.134 151.403L222.29 151.466C283.339 176.194 334.044 199.14 384.681 233.417C391.91 238.592 399.084 245.076 406.852 252.097C411.184 256.013 415.701 260.096 420.515 264.212C433.455 275.274 448.084 286.082 464.537 290.653L465.456 290.909H466.411H500.4C525.175 296.233 551.274 297.367 576.464 298.461C578.692 298.558 580.914 298.655 583.126 298.754C610.882 299.997 637.321 301.641 661.174 308.78C748.098 336.656 826.918 377.692 897.705 422.133C1113.33 558.726 1291.1 752.946 1411.3 985.05L1411.3 985.061L1411.31 985.071C1421.02 1003.67 1427.92 1021.51 1434.72 1039.87C1435.55 1042.11 1436.38 1044.36 1437.21 1046.61C1443.18 1062.78 1449.34 1079.48 1457.42 1097.12C1474.85 1137.77 1494.33 1178.8 1513.75 1219.49C1514.8 1221.68 1515.84 1223.87 1516.89 1226.06C1535.28 1264.59 1553.51 1302.78 1569.88 1340.22L1569.89 1340.24L1569.9 1340.27C1573.18 1347.59 1576.44 1354.94 1579.71 1362.31C1610.96 1432.69 1642.66 1504.09 1688.12 1563.21C1695.32 1573.23 1707.35 1581.47 1721.11 1588.47C1735.06 1595.58 1751.57 1601.81 1768.44 1607.43C1782.2 1612.02 1796.4 1616.27 1809.79 1620.27C1812.81 1621.18 1815.79 1622.07 1818.72 1622.95C1834.68 1627.75 1848.9 1632.2 1859.7 1636.59C1872.91 1642.52 1888.98 1648.21 1905.12 1653.93C1909.56 1655.5 1914 1657.07 1918.39 1658.65C1939.11 1666.11 1958.73 1673.75 1972.92 1682.42C2028.91 1716.98 2084.94 1756.55 2137.85 1794.56C2144.75 1799.72 2155.14 1806.18 2166.51 1813.26L2166.59 1813.31L2166.76 1813.41C2178.29 1820.58 2191.06 1828.52 2203.15 1836.85C2215.32 1845.24 2226.55 1853.85 2234.97 1862.25C2239.98 1867.24 2243.66 1871.83 2246.04 1875.96C2118.17 1873.58 2017.61 1887.07 1932.58 1923.02C1926.88 1925.29 1920.21 1927.04 1912.88 1928.95L1912.52 1929.04C1905.44 1930.88 1897.79 1932.86 1890.75 1935.57C1883.58 1938.33 1876.52 1942.02 1870.97 1947.57C1865.27 1953.27 1861.45 1960.65 1860.45 1970.11L1860.1 1973.44L1862.46 1975.8C1867.91 1981.24 1871.2 1988.61 1874.72 1997.92C1875.17 1999.12 1875.63 2000.36 1876.1 2001.61C1879.1 2009.72 1882.52 2018.93 1887.93 2027.45C1908.02 2060.88 1943.25 2106.34 1975.7 2130.27C2010.37 2156.68 2045.34 2183.31 2081.99 2206.64L2082.03 2206.67L2082.08 2206.69C2114.1 2226.4 2148.09 2242.05 2181.47 2257.42L2183.52 2258.36C2217.7 2274.1 2251.19 2289.63 2282.16 2309.19C2300.13 2320.61 2318.14 2333.71 2336.33 2347.15C2338.91 2349.06 2341.5 2350.97 2344.1 2352.89C2359.65 2364.41 2375.34 2376.03 2391.03 2386.73C2397.28 2391.28 2402.54 2396.75 2408.31 2402.74C2410.36 2404.87 2412.47 2407.07 2414.72 2409.31C2422.99 2417.58 2432.57 2425.93 2445.65 2430.59L2455 2433.93V2424V2419.05V2416.65L2453.52 2414.75C2448.43 2408.21 2445.04 2400.04 2441.26 2390.6L2440.8 2389.47C2437.28 2380.63 2433.34 2370.79 2427.27 2362.11L2426.92 2361.6L2426.48 2361.17C2418.15 2352.82 2409.81 2344.91 2401.55 2337.06L2401.44 2336.96Z" fill="white" stroke="white" stroke-width="14"/>
<path d="M622.347 492.292L622.054 492H621.641C593.503 492 573.628 495.324 553.759 500.268L553 500.457V501.239V504.53V505.53H554H556.685C563.327 518.577 572.351 529.605 581.716 540.166C583.825 542.545 585.95 544.899 588.068 547.245C595.496 555.473 602.853 563.622 609.23 572.519C615.816 585.644 621.988 598.776 628.167 611.922L628.194 611.981C634.373 625.127 640.558 638.288 647.16 651.448L647.784 652.693L648.764 651.704C649.583 650.878 650.404 650.057 651.021 649.441C651.329 649.134 651.587 648.878 651.767 648.699L651.975 648.492L651.992 648.475C675.407 631.757 687 605.084 687 565.417V565.046L686.758 564.765C681.901 559.117 679.06 553.463 676.386 547.722C676.089 547.083 675.793 546.443 675.497 545.801C673.143 540.699 670.745 535.504 667.034 530.314C661.968 521.901 653.983 515.636 645.733 509.877C643.994 508.664 642.246 507.474 640.508 506.291C633.929 501.812 627.504 497.439 622.347 492.292Z" fill="white" stroke="white" stroke-width="2"/>
</svg>
