<svg width="280" height="280" viewBox="0 0 280 280" fill="none" xmlns="http://www.w3.org/2000/svg">
<g clip-path="url(#clip0_312_78)">
<path d="M87.3429 216.913H84.8504L72.4083 204.474V201.982L91.4287 182.967H104.606L106.363 184.724V197.898L87.3429 216.913ZM72.4083 76.2274V73.7356L84.8504 61.2969H87.3429L106.363 80.3122V93.4859L104.606 95.2427H91.4287L72.4083 76.2274Z" fill="white"/>
<path d="M181.934 176.82H163.834L162.322 175.308V132.947C162.322 125.41 159.359 119.569 150.268 119.365C145.589 119.242 140.237 119.365 134.516 119.589L133.657 120.468V175.288L132.146 176.799H114.045L112.533 175.288V102.924L114.045 101.411H154.783C170.616 101.411 183.446 114.237 183.446 130.067V175.308L181.934 176.82Z" fill="white"/>
<path d="M89.9169 149.695H17.5118L16 148.184V130.046L17.5118 128.535H89.9169L91.4287 130.046V148.184L89.9169 149.695ZM278.488 149.695H206.083L204.571 148.184V130.046L206.083 128.535H278.488L280 130.046V148.184L278.488 149.695ZM137.56 78.8004V24.5114L139.071 23H157.214L158.726 24.5114V78.8004L157.214 80.3118H139.071L137.56 78.8004ZM137.56 253.718V199.429L139.071 197.918H157.214L158.726 199.429V253.718L157.214 255.229H139.071L137.56 253.718Z" fill="white"/>
</g>
<defs>
<clipPath id="clip0_312_78">
<rect width="264" height="233" fill="white" transform="translate(16 23)"/>
</clipPath>
</defs>
</svg>
