<svg width="280" height="280" viewBox="0 0 280 280" fill="none" xmlns="http://www.w3.org/2000/svg">
<g clip-path="url(#clip0_312_79)">
<path d="M167.805 164.87L163.254 172.557C162.603 173.694 161.665 174.644 160.531 175.31C159.398 175.976 158.109 176.336 156.792 176.355H122.57C119.839 176.355 117.382 174.908 116.017 172.557L111.466 164.87H167.805ZM180.274 143.256L172.447 156.821H106.824L98.9059 143.256H180.183H180.274ZM172.72 122.184L180.274 135.297H98.9969L106.642 122.184H172.72ZM156.792 102.289C159.522 102.289 161.98 103.645 163.345 105.906L168.078 114.136H111.284L116.017 105.997C116.675 104.845 117.628 103.888 118.779 103.221C119.93 102.554 121.238 102.201 122.57 102.198H156.792V102.289Z" fill="black"/>
<path d="M72.6934 98.6714C68.9618 80.3132 68.1426 66.2958 70.6001 56.1671C71.7356 50.5837 74.5997 45.4929 78.7915 41.6071C83.1328 37.8797 88.7098 35.8822 94.4461 36.0001C104.458 36.0001 115.016 40.5219 126.302 49.2036C130.852 52.7306 135.585 56.981 140.591 61.8645L141.865 60.508C155.973 48.1184 167.805 40.4314 177.907 37.4471C183.915 35.6384 189.466 35.4575 194.654 37.1758C200.115 38.9845 204.393 42.7827 207.397 48.028C212.402 56.6193 213.768 67.9236 211.947 82.0314C211.037 87.7288 209.763 93.9688 207.943 100.751C208.671 100.751 209.308 100.932 210.036 101.204C227.784 106.991 240.344 113.322 247.99 120.557C252.54 124.807 255.453 129.6 256.545 134.845C257.728 140.362 256.545 145.969 253.541 151.214C248.536 159.805 239.343 166.588 226.237 172.014C220.958 174.184 214.951 176.174 208.307 177.983L209.035 180.063C212.766 198.421 213.586 212.348 211.128 222.567C209.993 228.15 207.129 233.241 202.937 237.127C198.572 240.876 192.959 242.875 187.191 242.734C177.179 242.734 166.622 238.212 155.336 229.531C150.785 225.913 145.87 221.663 140.864 216.689C140.409 217.503 139.772 218.226 139.044 218.859C125.027 231.339 113.195 238.936 103.093 241.92C97.0856 243.729 91.5336 243.91 86.3458 242.191C80.8848 240.383 76.6071 236.584 73.6036 231.339C68.5977 222.748 67.2325 211.444 69.0528 197.336C69.9629 191.458 71.3282 184.946 73.2395 177.892C72.5114 177.892 71.6922 177.711 70.9641 177.44C53.2161 171.562 40.6559 165.322 33.0106 158.087C28.4598 153.837 25.5473 149.044 24.4551 143.798C23.2719 138.191 24.4551 132.675 27.4586 127.43C32.4645 118.748 41.6571 111.965 54.7633 106.63C60.2243 104.369 66.4133 102.289 73.3305 100.48L72.6934 98.6714Z" fill="black"/>
<path d="M196.566 181.872C198.386 181.6 200.024 182.776 200.479 184.404V184.585L200.661 185.489C206.759 217.413 202.482 233.42 187.737 233.42C173.357 233.42 154.971 219.764 132.764 192.543C132.374 192.056 132.129 191.471 132.056 190.854C131.983 190.236 132.084 189.61 132.349 189.047C132.614 188.483 133.031 188.004 133.554 187.663C134.078 187.323 134.686 187.133 135.312 187.117H136.586C156.731 187.238 176.842 185.482 196.657 181.872H196.566ZM95.5383 157.816H95.6293L96.2664 158.901C106.348 176.375 118.049 192.875 131.216 208.188C131.776 208.845 132.06 209.69 132.01 210.549C131.959 211.408 131.577 212.214 130.943 212.8V212.891L130.033 213.524C105.277 234.686 89.0762 238.846 81.6129 226.185C74.3316 213.795 77.0621 191.187 89.6222 158.359C89.8589 157.8 90.2439 157.316 90.7361 156.958C91.2282 156.599 91.809 156.381 92.4165 156.325C93.024 156.269 93.6353 156.379 94.1851 156.641C94.735 156.904 95.2026 157.31 95.5383 157.816ZM209.217 110.79H209.308L210.218 111.061C240.89 121.642 252.631 133.308 245.259 146.06C237.978 158.449 217.044 167.493 182.458 173.19C181.822 173.313 181.165 173.251 180.563 173.012C179.962 172.772 179.443 172.366 179.068 171.841C178.694 171.316 178.479 170.695 178.451 170.052C178.423 169.409 178.582 168.772 178.909 168.216C189.382 150.598 198.158 132.037 205.121 112.78C205.41 112.001 205.98 111.357 206.72 110.973C207.46 110.589 208.318 110.491 209.126 110.7H209.217V110.79ZM100.908 105.364C102.455 106.268 103.002 108.348 102.091 109.886C91.6181 127.504 82.8417 146.065 75.8789 165.322C75.5889 166.12 75.0045 166.779 74.2441 167.165C73.4837 167.551 72.6041 167.636 71.7832 167.402H71.6922L70.782 167.04C40.1097 156.46 28.3687 144.793 35.741 132.133C43.0222 119.653 63.9558 110.609 98.5418 105.002C99.4519 104.821 100.18 105.002 100.817 105.364H100.908ZM199.296 53.1831C206.577 65.5726 203.847 88.1813 191.287 121.009C191.05 121.568 190.665 122.052 190.173 122.41C189.681 122.769 189.1 122.987 188.492 123.043C187.885 123.099 187.274 122.989 186.724 122.727C186.174 122.464 185.706 122.058 185.371 121.552H185.28L184.643 120.467C174.561 102.993 162.86 86.4926 149.693 71.1796C149.133 70.5233 148.849 69.678 148.899 68.8191C148.95 67.9603 149.332 67.1539 149.966 66.5674V66.477L150.876 65.8439C175.632 44.6822 191.833 40.5222 199.296 53.1831ZM94.4461 45.5865C108.918 45.5865 127.212 59.1517 149.42 86.3726C149.805 86.8535 150.05 87.4306 150.127 88.0405C150.204 88.6505 150.11 89.2697 149.856 89.8303C149.602 90.3909 149.198 90.8712 148.687 91.2184C148.177 91.5657 147.58 91.7664 146.962 91.7987H145.688C125.543 91.6773 105.432 93.4334 85.6176 97.0439C83.7972 97.3152 82.159 96.23 81.7949 94.5117V94.4213L81.6129 93.4265C75.5148 61.5031 79.7926 45.4961 94.4461 45.4961V45.5865Z" fill="white"/>
<path d="M125.3 102.65H154.061C158.248 102.65 162.162 104.82 164.255 108.438L178.636 133.488C180.729 137.106 180.729 141.447 178.636 145.064L164.255 170.024C162.162 173.641 158.248 175.902 154.061 175.902H125.3C121.114 175.902 117.2 173.641 115.107 170.024L100.726 145.064C98.6328 141.447 98.6328 137.015 100.726 133.488L115.016 108.347C117.109 104.73 121.023 102.56 125.209 102.56L125.3 102.65ZM149.602 110.156C153.788 110.156 157.611 112.417 159.704 116.034L169.807 133.488C171.9 137.106 171.9 141.447 169.807 145.064L159.795 162.518C157.611 166.135 153.788 168.396 149.602 168.396H129.578C125.391 168.396 121.478 166.135 119.384 162.518L109.373 145.064C107.279 141.447 107.279 137.015 109.373 133.488L119.384 116.034C121.478 112.417 125.391 110.156 129.578 110.156H149.602ZM144.869 118.386H134.311C130.124 118.386 126.211 120.647 124.117 124.264L118.838 133.488C116.745 137.106 116.745 141.447 118.838 145.064L124.117 154.288C126.211 157.906 130.124 160.076 134.311 160.076H144.869C149.055 160.076 152.878 157.906 154.971 154.288L160.341 145.064C162.435 141.447 162.435 137.015 160.341 133.488L155.062 124.264C152.969 120.647 149.146 118.386 144.96 118.386H144.869ZM140.318 126.344C144.505 126.344 148.327 128.514 150.421 132.132L151.24 133.488C153.333 137.106 153.333 141.447 151.24 145.064L150.421 146.42C148.327 150.038 144.505 152.208 140.318 152.208H138.862C134.675 152.208 130.761 150.038 128.668 146.42L127.94 145.064C125.846 141.447 125.846 137.015 127.94 133.488L128.668 132.132C130.761 128.514 134.675 126.344 138.862 126.344H140.318ZM139.59 134.121C138.214 134.121 136.894 134.664 135.921 135.631C134.949 136.598 134.402 137.909 134.402 139.276C134.402 140.643 134.949 141.954 135.921 142.921C136.894 143.888 138.214 144.431 139.59 144.431C140.966 144.431 142.285 143.888 143.258 142.921C144.231 141.954 144.778 140.643 144.778 139.276C144.778 137.909 144.231 136.598 143.258 135.631C142.285 134.664 140.966 134.121 139.59 134.121ZM97.2676 139.276H106.642Z" fill="white"/>
</g>
<defs>
<clipPath id="clip0_312_79">
<rect width="233" height="208" fill="white" transform="translate(24 36)"/>
</clipPath>
</defs>
</svg>
