<svg width="280" height="280" viewBox="0 0 280 280" fill="none" xmlns="http://www.w3.org/2000/svg">
<path d="M159.507 250.399C153.604 257.824 141.635 253.756 141.493 244.275L139.414 105.607H232.758C249.664 105.607 259.094 125.113 248.58 138.339L159.507 250.399Z" fill="white"/>
<path d="M159.507 250.399C153.604 257.824 141.635 253.756 141.493 244.275L139.414 105.607H232.758C249.664 105.607 259.094 125.113 248.58 138.339L159.507 250.399Z" fill="url(#paint0_linear_312_90)" fill-opacity="0.2"/>
<path d="M121.544 27.27C127.448 19.845 139.414 23.9132 139.557 33.394L140.469 172.062H48.2913C31.3853 172.062 21.9539 152.556 32.469 139.329L121.544 27.27Z" fill="white"/>
<defs>
<linearGradient id="paint0_linear_312_90" x1="52.7706" y1="86.92" x2="139.348" y2="199.388" gradientUnits="userSpaceOnUse">
<stop offset="0.62379"/>
<stop offset="1" stop-opacity="0"/>
</linearGradient>
</defs>
</svg>
