<svg width="280" height="280" viewBox="0 0 280 280" fill="none" xmlns="http://www.w3.org/2000/svg">
<path fill-rule="evenodd" clip-rule="evenodd" d="M175.586 68L198 45H16V68H175.586Z" fill="white"/>
<path d="M173.787 137L261 47.0002L229.215 47L156 121.881L173.787 137Z" fill="white"/>
<path d="M240.718 170.697C240.718 193.424 222.191 211.848 199.337 211.848C180.878 211.848 165.227 199.824 159.901 183.206L156.641 173.032L138 191.568L139.703 195.596C149.482 218.733 172.492 235 199.337 235C235.05 235 264 206.211 264 170.697C264 147.179 251.094 126.816 232.311 115.625L227.905 113L210.837 130.191L218.624 134.279C231.777 141.184 240.718 154.907 240.718 170.697Z" fill="white"/>
<path fill-rule="evenodd" clip-rule="evenodd" d="M99.9999 230L100 88H77V230H99.9999Z" fill="white"/>
</svg>
