<svg width="280" height="280" viewBox="0 0 280 280" fill="none" xmlns="http://www.w3.org/2000/svg">
<path d="M210.921 133.032L258 160.212V214.602L210.921 241.781L190.022 229.695L139.202 259.034L88.6861 229.863L68.0788 241.781L21 214.556V160.212L68.0788 133.032L115.158 160.212V214.556L100.915 222.792L139.202 244.901L177.793 222.624L163.842 214.556V160.212L210.921 133.032ZM176.079 174.375V207.55L204.803 224.13V190.955L176.079 174.375ZM245.764 174.329L217.039 190.909V224.13L245.764 207.505V174.329ZM33.2362 174.329V207.505L61.9607 224.085V190.909L33.2362 174.329ZM102.921 174.329L74.1969 190.909V224.085L102.921 207.505V174.329ZM210.921 147.195L182.197 163.775L210.921 180.371L239.646 163.775L210.921 147.195ZM68.0788 147.149L39.3543 163.775L68.0788 180.325L96.8033 163.775L68.0788 147.149ZM91.4958 62.842V76.9595L47.9349 102.12V144.656L35.6987 151.723V95.0538L91.4958 62.842ZM138.575 20L185.684 47.1797V62.1262L242.705 95.0538V151.371L230.469 144.305V102.12L185.684 76.259V101.539L138.605 128.719L91.5264 101.539V47.1797L138.575 20ZM103.763 61.2972V94.4726L132.457 111.053V77.8925L103.763 61.2972ZM173.417 61.2972L144.723 77.8925V111.037L173.417 94.4726V61.2972ZM138.575 34.1328L109.881 50.7129L138.575 67.2929L167.299 50.7129L138.575 34.1328Z" fill="white"/>
</svg>
