<svg width="280" height="280" viewBox="0 0 280 280" fill="none" xmlns="http://www.w3.org/2000/svg">
<g clip-path="url(#clip0_312_95)">
<path opacity="0.6" d="M176.447 215.514C156.069 226.874 131.298 228.257 109.269 218.437C87.2407 208.617 71.6757 189.24 66.4772 166.491C81.8568 176.242 99.9709 185.816 119.837 194.672C139.703 203.528 158.908 210.59 176.447 215.514Z" fill="white"/>
<path d="M149.881 161.726C147.342 167.435 139.528 169.497 132.428 166.332C125.327 163.167 121.629 155.973 124.168 150.263C126.706 144.554 134.521 142.492 141.621 145.657C148.721 148.823 152.419 156.017 149.881 161.726Z" fill="white"/>
<path style="mix-blend-mode:soft-light" d="M149.881 161.726C147.342 167.435 139.528 169.497 132.428 166.332C125.327 163.167 121.629 155.973 124.168 150.263C126.706 144.554 134.521 142.492 141.621 145.657C148.721 148.823 152.419 156.017 149.881 161.726Z" fill="url(#paint0_radial_312_95)"/>
<path d="M192.412 186.373C199.845 188.507 207.259 185.393 208.97 179.417C210.681 173.441 206.043 166.867 198.609 164.733C191.176 162.599 183.763 165.713 182.051 171.689C180.34 177.665 184.979 184.239 192.412 186.373Z" fill="white"/>
<path style="mix-blend-mode:soft-light" d="M192.412 186.373C199.845 188.507 207.259 185.393 208.97 179.417C210.681 173.441 206.043 166.867 198.609 164.733C191.176 162.599 183.763 165.713 182.051 171.689C180.34 177.665 184.979 184.239 192.412 186.373Z" fill="url(#paint1_radial_312_95)"/>
<path d="M89.3273 116.017C95.8852 120.12 98.5345 127.719 95.2444 132.991C91.9543 138.263 83.9709 139.211 77.4131 135.108C70.855 131.005 68.206 123.405 71.4961 118.133C74.7862 112.861 82.7695 111.914 89.3273 116.017Z" fill="white"/>
<path style="mix-blend-mode:soft-light" d="M89.3273 116.017C95.8852 120.12 98.5345 127.719 95.2444 132.991C91.9543 138.263 83.9709 139.211 77.4131 135.108C70.855 131.005 68.206 123.405 71.4961 118.133C74.7862 112.861 82.7695 111.914 89.3273 116.017Z" fill="url(#paint2_radial_312_95)"/>
<path fill-rule="evenodd" clip-rule="evenodd" d="M178.277 63.2205C211.825 78.176 233.367 110.792 234.235 147.23C253.986 162.788 273.615 184.564 264.494 205.075C249.703 238.339 180.082 221.514 119.832 194.656C59.5818 167.797 0.508979 127.251 15.3005 93.9868C24.4212 73.4757 53.7178 73.5106 78.4811 77.7959C106.107 54.0605 144.729 48.2651 178.277 63.2205ZM32.6886 101.738C27.7194 112.914 54.4346 144.641 127.574 177.246C200.712 209.85 242.137 208.498 247.106 197.324C251.219 188.074 234.183 168.315 214.899 156.511C214.308 156.15 213.485 155.638 212.454 154.996C203.064 149.159 176.473 132.627 152.189 121.802C144.853 118.532 141.987 109.809 145.068 102.877C148.151 95.9462 154.925 91.3127 169.189 90.6568C175.904 90.6381 176.784 88.7751 177.091 87.1777C177.47 84.7132 173.98 82.1664 170.535 80.6306C142.54 68.1508 108.276 73.3722 84.5309 98.3945C61.3242 93.1861 36.8014 92.4894 32.6886 101.738Z" fill="white"/>
<path style="mix-blend-mode:soft-light" fill-rule="evenodd" clip-rule="evenodd" d="M178.277 63.2205C211.825 78.176 233.367 110.792 234.235 147.23C253.986 162.788 273.615 184.564 264.494 205.075C249.703 238.339 180.082 221.514 119.832 194.656C59.5818 167.797 0.508979 127.251 15.3005 93.9868C24.4212 73.4757 53.7178 73.5106 78.4811 77.7959C106.107 54.0605 144.729 48.2651 178.277 63.2205ZM32.6886 101.738C27.7194 112.914 54.4346 144.641 127.574 177.246C200.712 209.85 242.137 208.498 247.106 197.324C251.219 188.074 234.183 168.315 214.899 156.511C214.308 156.15 213.485 155.638 212.454 154.996C203.064 149.159 176.473 132.627 152.189 121.802C144.853 118.532 141.987 109.809 145.068 102.877C148.151 95.9462 154.925 91.3127 169.189 90.6568C175.904 90.6381 176.784 88.7751 177.091 87.1777C177.47 84.7132 173.98 82.1664 170.535 80.6306C142.54 68.1508 108.276 73.3722 84.5309 98.3945C61.3242 93.1861 36.8014 92.4894 32.6886 101.738Z" fill="url(#paint3_radial_312_95)"/>
</g>
<defs>
<radialGradient id="paint0_radial_312_95" cx="0" cy="0" r="1" gradientUnits="userSpaceOnUse" gradientTransform="translate(257.937 148.824) rotate(-168.236) scale(264.304 128.926)">
<stop stop-color="white"/>
<stop offset="1" stop-color="white" stop-opacity="0"/>
</radialGradient>
<radialGradient id="paint1_radial_312_95" cx="0" cy="0" r="1" gradientUnits="userSpaceOnUse" gradientTransform="translate(257.937 148.824) rotate(-168.236) scale(264.304 128.926)">
<stop stop-color="white"/>
<stop offset="1" stop-color="white" stop-opacity="0"/>
</radialGradient>
<radialGradient id="paint2_radial_312_95" cx="0" cy="0" r="1" gradientUnits="userSpaceOnUse" gradientTransform="translate(257.937 148.824) rotate(-168.236) scale(264.304 128.926)">
<stop stop-color="white"/>
<stop offset="1" stop-color="white" stop-opacity="0"/>
</radialGradient>
<radialGradient id="paint3_radial_312_95" cx="0" cy="0" r="1" gradientUnits="userSpaceOnUse" gradientTransform="translate(257.937 148.824) rotate(-168.236) scale(264.304 128.926)">
<stop stop-color="white"/>
<stop offset="1" stop-color="white" stop-opacity="0"/>
</radialGradient>
<clipPath id="clip0_312_95">
<rect width="254" height="170" fill="white" transform="translate(13 55)"/>
</clipPath>
</defs>
</svg>
