<svg width="280" height="280" viewBox="0 0 280 280" fill="none" xmlns="http://www.w3.org/2000/svg">
<g clip-path="url(#clip0_312_94)">
<g clip-path="url(#clip1_312_94)">
<path d="M233.386 80.021C234.934 61.9481 237.783 44.8685 238.399 41.3459C238.401 41.275 238.388 41.2045 238.362 41.1387C238.335 41.0729 238.296 41.0132 238.246 40.9631C238.196 40.913 238.136 40.8736 238.07 40.8473C238.004 40.821 237.934 40.8083 237.863 40.8101C234.34 41.4261 217.261 44.275 199.188 45.8228C37.7485 65.4211 58.7518 208.599 58.7518 208.599L58.9802 209.747C50.1649 219.786 38.1284 234.884 38.1284 234.884L44.2489 241.004C44.2489 241.004 59.2686 229.044 69.3845 220.152L70.6101 220.304C70.6097 220.457 213.787 241.461 233.386 80.021ZM66.0224 213.11C66.0224 213.11 65.4923 206.295 66.1068 203.691L66.2606 203.538L169.265 109.408C169.571 109.102 170.031 109.561 169.724 109.868L75.5945 212.871L75.4407 213.025C72.8368 213.64 66.0221 213.11 66.0221 213.11L66.0224 213.11Z" fill="white"/>
</g>
</g>
<defs>
<clipPath id="clip0_312_94">
<rect width="280" height="280" fill="white"/>
</clipPath>
<clipPath id="clip1_312_94">
<rect width="130" height="279" fill="white" transform="translate(192.283 -5) rotate(45)"/>
</clipPath>
</defs>
</svg>
