<svg width="155" height="172" viewBox="0 0 155 172" fill="none" xmlns="http://www.w3.org/2000/svg">
<path fill-rule="evenodd" clip-rule="evenodd" d="M0.499878 24.0001L77.4999 4.57764e-05L154.5 24.0001L105.276 61.6942C98.6091 54.5017 89.0803 50 78.5 50C58.3416 50 42 66.3416 42 86.5C42 93.6223 44.04 100.268 47.5675 105.885L22.6057 125C8.79226 100.546 0.499939 67.1101 0.499878 24.0001Z" fill="white"/>
<path fill-rule="evenodd" clip-rule="evenodd" d="M153.894 24C153.894 108 122.894 160.5 76.8942 172C54.9506 164.769 35.7429 149.329 22 125L47.3723 105.571C53.7917 116.026 65.3315 123 78.5 123C98.6584 123 115 106.658 115 86.5C115 76.7888 111.207 67.9634 105.023 61.4241L153.894 24Z" fill="#D9D9D9"/>
<path d="M57.1049 85.2033C55.2967 83.236 54.0495 80.8195 53.4934 78.206C52.9373 75.5924 53.0927 72.8775 53.9434 70.3445C54.7942 67.8114 56.309 65.5531 58.33 63.8051C60.3509 62.057 62.8039 60.8833 65.4331 60.4063C68.0622 59.9293 70.7712 60.1666 73.2774 61.0934C75.7836 62.0202 77.9952 63.6025 79.6815 65.6753C81.3677 67.748 82.4669 70.2354 82.8643 72.8777C83.2617 75.52 82.9428 78.2206 81.9408 80.6977L100.836 100.623L100.584 106.652L93.9596 106.374L87.9314 106.121L88.1841 100.093L82.156 99.8404L82.4086 93.8123L76.3805 93.5596L72.5196 89.3609C69.8201 90.1977 66.9386 90.2512 64.2099 89.5153C61.4813 88.7793 59.0175 87.284 57.1049 85.2033ZM62.0682 74.8435C62.8341 75.6764 63.8994 76.171 65.0299 76.2183C66.1604 76.2657 67.2634 75.8621 68.0963 75.0962C68.9292 74.3303 69.4238 73.265 69.4711 72.1345C69.5185 71.004 69.1149 69.901 68.349 69.0681C67.5831 68.2352 66.5178 67.7407 65.3873 67.6933C64.2568 67.6459 63.1538 68.0495 62.3209 68.8154C61.488 69.5813 60.9935 70.6466 60.9461 71.7771C60.8987 72.9076 61.3023 74.0106 62.0682 74.8435Z" fill="white"/>
</svg>
