<svg width="280" height="280" viewBox="0 0 280 280" fill="none" xmlns="http://www.w3.org/2000/svg">
<path d="M250 140C250 169.174 238.41 197.153 217.779 217.782C197.149 238.411 169.168 250 139.992 250L250 140ZM139.992 30C184.683 30 223.1 56.6406 240.374 94.8828L94.8711 240.375C88.5972 237.539 82.6671 234.188 77.0807 230.32L167.494 140H139.992L62.2124 217.773C46.8308 202.39 36.3562 182.791 32.1129 161.455C27.8696 140.12 30.0481 118.005 38.373 97.9071C46.6979 77.8092 60.7954 60.6308 78.8831 48.5436C96.9708 36.4565 118.237 30.0033 139.992 30Z" fill="white"/>
</svg>
