<svg width="280" height="280" viewBox="0 0 280 280" fill="none" xmlns="http://www.w3.org/2000/svg">
<g clip-path="url(#clip0_312_97)">
<g clip-path="url(#clip1_312_97)">
<path d="M263.027 164.81C261.082 159.943 257.191 157.022 252.328 156.049L244.547 157.022L230.93 158.969C242.602 139.5 252.328 117.109 257.191 95.6927C265.945 62.5942 262.055 47.0185 256.219 40.2041C249.122 30.9848 239.978 23.5461 229.511 18.4771C219.044 13.408 207.541 10.8479 195.914 10.9995C182.297 10.9995 169.652 13.92 163.816 15.867L145.336 13.92C133.664 13.92 121.992 16.8404 113.238 21.7079L90.8672 15.867C68.4961 12.9465 50.0156 15.867 37.3711 24.6283C21.8086 36.3101 14.0273 55.7798 15 83.0374C19.3606 115.689 28.5387 147.511 42.2344 177.465C49.043 191.094 55.8515 198.882 64.6055 200.829C69.4687 202.776 77.25 203.75 86.0039 196.935L90.8672 200.829L99.6211 203.75C110.32 206.67 121.02 205.696 129.773 202.776C129.799 206.021 129.799 209.266 129.773 212.511C129.737 223.406 131.377 234.241 134.637 244.636C135.609 248.53 138.527 255.344 143.391 260.212C149.227 266.053 156.035 268 162.844 268L171.598 267.026C181.324 265.079 192.023 261.185 199.805 250.477C207.586 239.768 210.504 224.193 211.477 198.882V196.935L212.449 194.988L213.422 195.962H214.395C224.121 195.962 235.793 194.015 243.574 190.121C248.437 188.174 266.918 178.439 263.027 164.81Z" fill="white"/>
<path d="M246.492 167.731C217.312 173.572 215.367 163.837 215.367 163.837C246.492 118.083 259.137 60.6475 247.465 47.0187C217.312 8.0793 165.762 26.5755 164.789 26.5755L145.336 24.6285C131.719 24.6285 121.992 28.5225 114.211 34.3634C114.211 34.3634 21.8086 -4.57601 25.6992 82.0641C26.6719 100.56 52.9336 221.272 83.0859 185.254L104.484 159.943C110.32 163.837 116.156 165.784 122.965 164.81H123.937V169.678C116.156 178.439 118.102 179.413 102.539 183.307C86.9766 186.227 95.7305 192.068 102.539 194.015C109.348 195.962 126.855 197.909 137.555 182.333V184.28C140.473 186.227 142.418 199.856 142.418 212.511C141.445 224.193 141.445 232.954 144.363 238.795C146.309 245.61 149.227 260.212 169.652 256.318C186.187 252.424 195.914 242.689 196.887 227.113C197.859 215.432 199.805 217.379 199.805 207.644L200.777 202.776C202.723 187.201 201.75 182.333 212.449 184.28L214.395 185.254C222.176 185.254 232.875 183.307 238.711 180.386C251.355 174.545 259.137 164.81 246.492 167.731Z" fill="white"/>
<path d="M120.047 90.8259H114.211L113.238 92.7729L114.211 95.6934C115.184 97.6403 117.129 98.6138 119.074 98.6138H120.047C122.965 98.6138 125.883 96.6669 125.883 94.7199C126.855 92.7729 122.965 90.8259 120.047 90.8259ZM206.613 90.8259C206.613 88.879 202.723 87.9055 199.805 88.879C196.887 88.879 193.969 89.8525 193.969 91.7994C194.941 93.7464 196.887 95.6934 199.805 95.6934H200.777L204.668 93.7464L206.613 90.8259Z" fill="black"/>
<path d="M256.219 166.757C255.246 163.837 251.355 161.89 245.52 163.837C228.012 166.757 222.176 164.81 219.258 162.863C232.875 142.42 244.547 117.11 250.383 93.746C253.301 83.0377 255.246 72.3294 255.246 64.5415C255.246 54.8066 253.301 47.9922 250.383 44.0983C243.841 35.681 235.417 28.9177 225.787 24.3527C216.158 19.7876 205.593 17.548 194.941 17.8142C179.379 17.8142 165.762 21.7081 162.844 23.6551C157.98 21.7081 151.172 20.7347 145.336 20.7347C132.691 20.7347 122.965 23.6551 114.211 29.496C110.32 27.549 100.594 24.6286 88.9218 22.6816C68.4961 19.7612 52.9336 21.7081 41.2617 30.4695C27.6445 40.2044 20.8359 57.7271 22.7812 82.0642C22.7812 89.8521 27.6445 116.136 35.4258 140.473C45.1523 172.598 55.8515 190.121 66.5508 194.015L71.414 194.988C75.3047 194.988 80.1679 193.041 85.0312 186.227L105.457 164.81C109.348 166.757 114.211 167.731 119.074 167.731V168.704L117.129 171.625C113.238 176.492 112.266 176.492 101.566 179.413C98.6484 179.413 89.8945 181.36 89.8945 187.201C89.8945 194.015 99.6211 196.935 100.594 196.935L112.266 197.909C121.02 197.909 128.801 194.988 135.609 190.121C134.637 212.511 135.609 234.901 138.527 241.716C141.445 247.557 146.309 261.185 163.816 261.185L172.57 260.212C190.078 256.318 197.859 248.53 200.777 231.007L206.613 187.201L217.312 188.174C225.094 188.174 233.848 186.227 239.684 183.307C246.492 180.386 258.164 173.572 256.219 166.757ZM213.422 85.9581L212.449 95.693L210.504 107.375L211.477 121.004C212.449 129.765 214.395 139.5 209.531 148.261L207.586 144.367L204.668 138.526C197.859 126.845 183.27 100.56 191.051 89.8521C192.996 86.9316 198.832 84.0112 213.422 85.9581ZM195.914 25.6021C216.34 25.6021 232.875 33.39 244.547 47.9922C253.301 59.6741 243.574 111.269 215.367 156.049L214.395 155.076C221.203 142.42 220.23 130.738 219.258 120.03L218.285 107.375L219.258 96.6665C220.16 91.527 220.487 86.3027 220.23 81.0907C220.23 76.2233 214.395 61.621 202.723 47.9922C196.887 41.1778 187.16 32.4165 175.488 27.549L195.914 25.6021ZM80.1679 182.333C74.332 189.148 70.4414 188.174 68.4961 187.201C60.7148 184.28 50.0156 166.757 42.2343 137.553C34.4531 113.216 29.5898 88.8786 29.5898 82.0642C28.6172 59.6741 33.4804 44.0983 45.1523 36.3104C64.6054 22.6816 95.7304 30.4695 107.402 34.3634V35.3369C86.9765 55.7801 86.9765 90.8256 86.9765 93.746V96.6665C87.9492 103.481 88.9218 114.189 86.9765 126.845C86.0315 132.897 86.6033 139.09 88.6405 144.867C90.6778 150.645 94.1166 155.825 98.6484 159.943L80.1679 182.333ZM101.566 153.129C95.7304 146.314 92.8125 137.553 93.7851 127.818C95.7304 114.189 94.7578 102.507 94.7578 96.6665V94.7195C97.6758 91.7991 111.293 84.0112 121.02 86.9316C125.883 87.9051 128.801 90.8256 129.773 95.693C135.609 122.951 130.746 134.632 125.883 144.367L123.937 149.235L122.965 151.182L120.047 160.916C113.238 160.916 106.43 157.996 101.566 153.129ZM102.539 190.121L97.6758 188.174L103.512 186.227C116.156 183.307 118.102 181.36 121.992 176.492L125.883 171.625C128.801 168.704 129.773 169.678 131.719 170.651C132.691 170.651 134.637 172.598 135.609 175.519L134.637 179.413C125.883 192.068 112.266 192.068 102.539 190.121ZM170.625 253.398C155.062 256.318 149.227 248.53 145.336 238.795C141.872 217.238 140.893 195.353 142.418 173.572C140.473 168.704 137.555 164.81 134.637 163.837C132.691 162.863 129.773 161.89 126.855 162.863L129.773 153.129L130.746 152.155L132.691 147.288C137.555 137.553 143.391 123.924 136.582 94.7195C134.637 83.0377 125.883 78.1703 114.211 79.1437C107.341 80.1071 100.729 82.4232 94.7578 85.9581C95.7304 74.2763 99.6211 53.8331 112.266 40.2044C121.02 32.4165 131.719 27.549 145.336 28.5225C171.598 28.5225 188.133 42.1513 197.859 53.8331C205.641 63.568 210.504 73.3028 212.449 78.1703C198.832 77.1968 190.078 79.1437 185.215 85.9581C175.488 100.56 191.051 128.791 197.859 141.447L200.777 147.288L208.559 159.943L210.504 161.89C206.613 163.837 199.805 165.784 199.805 179.413L193.969 229.06C191.051 244.636 186.187 249.504 170.625 253.398ZM236.766 177.466C232.875 179.413 226.066 180.386 219.258 180.386C211.477 181.36 208.559 180.386 207.586 179.413C206.613 170.651 210.504 169.678 213.422 168.704H215.367L216.34 169.678C222.176 173.572 231.902 173.572 246.492 170.651H247.465L236.766 177.466Z" fill="black"/>
</g>
</g>
<defs>
<clipPath id="clip0_312_97">
<rect width="280" height="280" fill="white"/>
</clipPath>
<clipPath id="clip1_312_97">
<rect width="249" height="257" fill="white" transform="translate(15 11)"/>
</clipPath>
</defs>
</svg>
