<svg width="280" height="280" viewBox="0 0 280 280" fill="none" xmlns="http://www.w3.org/2000/svg">
<g clip-path="url(#clip0_312_86)">
<path d="M147.71 28.0666C121.995 27.1784 96.2822 35.1726 75 52.0508L89.187 60.0458C106.035 47.6089 127.315 42.2793 147.71 43.1676V28.0666Z" fill="white"/>
<path d="M223.078 61.8225C205.344 43.1678 182.29 31.6198 157.463 28.9551V44.0561C178.745 47.6091 197.366 57.3805 212.439 72.4822L223.078 61.8225Z" fill="white"/>
<path d="M255 134.664C254.114 111.568 245.247 88.4717 230.173 68.9287L219.531 79.5884C231.946 96.4659 239.04 115.121 239.927 134.664H255Z" fill="white"/>
<path d="M230.173 211.058C245.247 191.515 254.114 168.419 255 145.323H239.927C239.041 164.866 231.946 183.521 219.531 200.398L230.173 211.058Z" fill="white"/>
<path d="M157.463 251.032C181.404 248.367 205.344 236.819 223.079 218.165L212.439 207.505C197.366 223.495 177.856 233.266 157.463 235.93V251.032Z" fill="white"/>
<path d="M75 227.936C96.2822 244.814 121.995 252.809 147.71 251.921V236.819C127.315 237.708 106.922 232.378 89.187 219.941L75 227.936Z" fill="white"/>
<path d="M143.661 78.2549C153.138 78.2549 161.885 79.8715 169.902 83.1054C177.919 86.2351 184.792 90.6164 190.521 96.2495C196.351 101.883 200.88 108.508 204.109 116.124C207.339 123.635 208.952 131.771 208.952 140.535C208.952 149.297 207.339 157.487 204.109 165.102C200.88 172.613 196.351 179.185 190.521 184.818C184.792 190.452 177.919 194.886 169.902 198.12C161.885 201.249 153.138 202.814 143.662 202.814C134.081 202.814 125.28 201.249 117.263 198.12C109.348 194.886 102.53 190.452 96.8018 184.819C91.0734 179.185 86.5974 172.613 83.3686 165.102C80.1399 157.487 78.5262 149.297 78.5262 140.535C78.5262 131.772 80.1399 123.635 83.3686 116.124C86.5974 108.508 91.0734 101.883 96.8018 96.2503C102.53 90.6164 109.348 86.2351 117.263 83.1061C125.28 79.8715 134.082 78.2549 143.661 78.2549ZM143.661 107.986C139.182 107.986 134.914 108.82 130.853 110.49C126.897 112.055 123.407 114.298 120.387 117.219C117.369 120.139 114.972 123.582 113.202 127.546C111.433 131.511 110.547 135.84 110.547 140.535C110.547 145.229 111.433 149.558 113.202 153.522C114.972 157.487 117.369 160.929 120.388 163.85C123.407 166.772 126.897 169.066 130.853 170.735C134.914 172.3 139.182 173.082 143.661 173.082C148.14 173.082 152.357 172.3 156.313 170.735C160.374 169.066 163.916 166.772 166.934 163.85C170.058 160.929 172.507 157.487 174.276 153.522C176.045 149.558 176.931 145.229 176.931 140.535C176.931 135.84 176.045 131.511 174.276 127.546C172.507 123.582 170.058 120.139 166.935 117.219C163.916 114.298 160.374 112.055 156.313 110.49C152.357 108.82 148.14 107.986 143.661 107.986Z" fill="white"/>
</g>
<defs>
<clipPath id="clip0_312_86">
<rect width="180" height="224" fill="white" transform="translate(75 28)"/>
</clipPath>
</defs>
</svg>
